Exact Audio Copy V1.0 beta 2 from 29. April 2011

EAC日志文件创建时间：8. 十二月 2015, 18:25

石川 綾子 / ANIME CLASSIC

光驱型号　　　ASUS    BW-16D1HT   Adapter: 0  ID: 0

抓轨模式　　 : 暴发

读取偏移校正　　　　　　　　　　　　 : 0
通读Ｌｅａｄ－Ｉｎ和Ｌｅａｄ－Ｏｕｔ : 否
用静音填充丢失的偏移采样　　　　　　 : 是
删除开始与结尾的静音部分　　　　　　 : 否
校验和计算中使用空白采样　　　　　　 : 否
使用的接口　　　　　　　　　　　　　 : Win NT & 2000 的本地Win32接口

输出格式　　　 : 内部WAV例程
采样格式　　　 : 44.100 Hz; 16 Bit; 立体声


CD内容目录(TOC)

     Track |   Start  |  Length  | Start sector | End sector 
    ---------------------------------------------------------
        1  |  0:00.00 |  4:13.08 |         0    |    18982   
        2  |  4:13.08 |  4:23.63 |     18983    |    38770   
        3  |  8:36.71 |  5:04.11 |     38771    |    61581   
        4  | 13:41.07 |  4:14.28 |     61582    |    80659   
        5  | 17:55.35 |  3:51.24 |     80660    |    98008   
        6  | 21:46.59 |  5:20.39 |     98009    |   122047   
        7  | 27:07.23 |  4:35.46 |    122048    |   142718   
        8  | 31:42.69 |  4:57.57 |    142719    |   165050   
        9  | 36:40.51 |  3:50.67 |    165051    |   182367   
       10  | 40:31.43 |  3:06.48 |    182368    |   196365   
       11  | 43:38.16 |  4:45.22 |    196366    |   217762   
       12  | 48:23.38 |  3:40.60 |    217763    |   234322   


＝＝＝以下为抓取选定区域的结果报告＝＝＝

选定区域为（空白为全盘镜像）：

     抓轨文件　：C:\Users\Bravesong\Desktop\新建文件夹 (2)\石川 綾子 - ANIME CLASSIC.wav

     计时问题　：0:00:20 - 0:00:21

     峰值电平　：99.8 %
     抓轨速度　：22.3 X
     复制ＣＲＣ：8B1C8B92
     复制结束　！

没有错误发生

日志文件结束
